<?xml version="1.0" encoding="UTF-8" standalone="no"?>
<!-- Created with Inkscape (http://www.inkscape.org/) -->

<svg
   width="8.3999996cm"
   height="3.8cm"
   viewBox="0 0 83.999996 38"
   version="1.1"
   id="svg1"
   xml:space="preserve"
   inkscape:version="1.3.2 (091e20e, 2023-11-25)"
   sodipodi:docname="repo_banner.svg"
   inkscape:export-filename="relu_approximations.pdf"
   inkscape:export-xdpi="96"
   inkscape:export-ydpi="96"
   xmlns:inkscape="http://www.inkscape.org/namespaces/inkscape"
   xmlns:sodipodi="http://sodipodi.sourceforge.net/DTD/sodipodi-0.dtd"
   xmlns="http://www.w3.org/2000/svg"
   xmlns:svg="http://www.w3.org/2000/svg"><sodipodi:namedview
     id="namedview1"
     pagecolor="#ffffff"
     bordercolor="#000000"
     borderopacity="0.25"
     inkscape:showpageshadow="2"
     inkscape:pageopacity="0.0"
     inkscape:pagecheckerboard="0"
     inkscape:deskcolor="#d1d1d1"
     inkscape:document-units="mm"
     inkscape:zoom="2.7134059"
     inkscape:cx="158.84096"
     inkscape:cy="101.34864"
     inkscape:window-width="1512"
     inkscape:window-height="817"
     inkscape:window-x="0"
     inkscape:window-y="38"
     inkscape:window-maximized="0"
     inkscape:current-layer="layer1" /><defs
     id="defs1"><marker
       style="overflow:visible"
       id="marker2"
       refX="0"
       refY="0"
       orient="auto-start-reverse"
       inkscape:stockid="Stylized triangle arrow"
       markerWidth="0.75"
       markerHeight="0.75"
       viewBox="0 0 1 1"
       inkscape:isstock="true"
       inkscape:collect="always"
       preserveAspectRatio="xMidYMid"><path
         transform="scale(0.5)"
         style="fill:context-stroke;fill-rule:evenodd;stroke:context-stroke;stroke-width:1pt"
         d="m 6,0 c -3,1 -7,3 -9,5 0,0 0,-4 2,-5 -2,-1 -2,-5 -2,-5 2,2 6,4 9,5 z"
         id="path2" /></marker><style
       type="text/css"
       id="style1">*{stroke-linejoin: round; stroke-linecap: butt}</style><clipPath
       id="pe43ebd9597"><rect
         x="14.13"
         y="13.5648"
         width="87.606003"
         height="87.040802"
         id="rect9" /></clipPath><style
       type="text/css"
       id="style1-9">*{stroke-linejoin: round; stroke-linecap: butt}</style><path
       id="TimesNewRomanPSMT-30"
       d="m 231,2094 q 0,725 219,1248 219,524 581,780 282,203 582,203 487,0 875,-497 484,-615 484,-1669 0,-737 -213,-1253 Q 2547,391 2217,158 1888,-75 1581,-75 975,-75 572,641 231,1244 231,2094 Z m 613,-78 q 0,-875 215,-1428 179,-466 532,-466 168,0 349,151 182,152 276,508 143,538 143,1516 0,725 -150,1209 -112,360 -290,510 -128,103 -310,103 -212,0 -378,-191 -225,-259 -306,-816 -81,-556 -81,-1096 z"
       transform="scale(0.015625)" /><path
       id="TimesNewRomanPSMT-35"
       d="M 2778,4238 2534,3706 H 1259 L 981,3138 q 828,-122 1313,-616 415,-425 415,-1000 0,-334 -136,-619 Q 2438,619 2231,419 2025,219 1772,97 1413,-75 1034,-75 653,-75 479,54 306,184 306,341 q 0,87 72,154 72,68 181,68 82,0 143,-25 61,-25 207,-129 235,-162 475,-162 366,0 642,276 277,277 277,674 0,384 -247,717 -247,333 -681,514 -341,141 -928,163 l 812,1647 z"
       transform="scale(0.015625)" /><path
       id="TimesNewRomanPSMT-31"
       d="m 750,3822 1031,503 h 103 V 747 q 0,-356 30,-444 30,-87 123,-134 94,-47 382,-53 V 0 H 825 v 116 q 300,6 387,51 88,46 122,122 35,77 35,458 v 2287 q 0,463 -31,594 -22,100 -80,147 -58,47 -139,47 -116,0 -322,-97 z"
       transform="scale(0.015625)" /><path
       id="TimesNewRomanPSMT-46"
       d="M 1309,4006 V 2341 h 772 q 266,0 389,117 124,117 164,464 h 116 V 1488 h -116 q -3,246 -64,362 -61,116 -169,173 -107,58 -320,58 H 1309 V 750 q 0,-322 41,-425 31,-78 131,-134 138,-75 288,-75 h 153 V 0 H 103 v 116 h 150 q 263,0 381,153 75,100 75,481 v 2738 q 0,321 -40,425 -31,78 -128,134 -135,75 -288,75 H 103 v 116 h 3153 l 41,-932 h -109 q -82,297 -190,436 -107,139 -265,201 -158,63 -489,63 z"
       transform="scale(0.015625)" /><path
       id="TimesNewRomanPSMT-72"
       d="m 1038,2947 v -644 q 359,644 737,644 172,0 284,-105 113,-104 113,-242 0,-122 -82,-207 -81,-84 -193,-84 -109,0 -245,108 -136,108 -202,108 -56,0 -122,-62 -140,-129 -290,-422 V 669 q 0,-238 59,-360 41,-84 144,-140 103,-56 297,-56 V 0 H 72 v 113 q 219,0 325,68 78,50 109,160 16,53 16,303 v 1109 q 0,500 -21,595 -20,96 -75,139 -54,44 -135,44 -97,0 -219,-47 l -31,113 865,350 z"
       transform="scale(0.015625)" /><path
       id="TimesNewRomanPSMT-65"
       d="m 681,1784 q -3,-637 310,-1000 312,-362 734,-362 281,0 489,154 208,155 349,530 l 96,-62 Q 2594,616 2278,264 1963,-88 1488,-88 972,-88 605,314 238,716 238,1394 q 0,734 376,1145 377,411 945,411 482,0 791,-317 309,-317 309,-849 z m 0,182 h 1325 q -15,275 -65,387 -78,175 -233,275 -155,100 -324,100 -259,0 -464,-202 -204,-201 -239,-560 z"
       transform="scale(0.015625)" /><path
       id="TimesNewRomanPSMT-71"
       d="M 2734,2947 V -734 q 0,-275 37,-353 38,-79 118,-122 80,-44 311,-44 v -116 H 1756 v 116 h 60 q 175,0 265,50 63,34 100,123 38,89 38,346 V 497 Q 1934,159 1721,35 1509,-88 1281,-88 866,-88 539,290 213,669 213,1303 q 0,728 431,1186 431,458 1040,458 179,0 329,-50 150,-50 268,-150 182,87 347,200 z M 2219,694 v 1344 q 0,234 -61,368 -61,135 -218,228 -156,94 -352,94 -350,0 -600,-297 -250,-297 -250,-900 0,-578 254,-878 255,-300 614,-300 185,0 328,80 144,80 285,261 z"
       transform="scale(0.015625)" /><path
       id="TimesNewRomanPSMT-2e"
       d="M 800,606 Q 947,606 1047,504 1147,403 1147,259 1147,116 1045,14 944,-88 800,-88 656,-88 554,14 453,116 453,259 q 0,147 101,247 102,100 246,100 z"
       transform="scale(0.015625)" /><path
       id="TimesNewRomanPSMT-20"
       transform="scale(0.015625)"
       d="" /><path
       id="TimesNewRomanPSMT-28"
       d="m 1988,-1253 v -116 q -472,238 -788,556 -450,454 -694,1069 -243,616 -243,1278 0,969 478,1767 478,799 1247,1143 V 4313 Q 1603,4100 1356,3731 1109,3363 987,2797 866,2231 866,1616 866,947 969,400 q 81,-431 196,-692 116,-261 311,-501 196,-241 512,-460 z"
       transform="scale(0.015625)" /><path
       id="TimesNewRomanPSMT-48"
       d="m 1316,2272 h 1968 v 1212 q 0,325 -40,429 -31,78 -131,134 -135,75 -285,75 h -150 v 116 h 1813 v -116 h -150 q -150,0 -285,-72 -100,-50 -136,-152 -36,-101 -36,-414 V 750 q 0,-322 41,-425 31,-78 128,-134 138,-75 288,-75 h 150 V 0 H 2678 v 116 h 150 q 260,0 378,153 78,100 78,481 V 2041 H 1316 V 750 q 0,-322 40,-425 32,-78 132,-134 134,-75 284,-75 h 153 V 0 H 109 v 116 h 150 q 263,0 382,153 75,100 75,481 v 2734 q 0,325 -41,429 -31,78 -128,134 -138,75 -288,75 H 109 v 116 h 1816 v -116 h -153 q -150,0 -284,-72 -97,-50 -135,-152 -37,-101 -37,-414 z"
       transform="scale(0.015625)" /><path
       id="TimesNewRomanPSMT-7a"
       d="M 2688,878 2653,0 H 128 v 113 l 1900,2531 h -937 q -303,0 -397,-39 -94,-39 -153,-149 -85,-156 -97,-387 H 319 l 19,794 H 2738 V 2747 L 819,209 h 1044 q 328,0 445,55 117,55 189,192 50,100 84,422 z"
       transform="scale(0.015625)" /><path
       id="TimesNewRomanPSMT-29"
       d="m 144,4313 v 131 q 475,-235 790,-553 447,-457 691,-1071 244,-614 244,-1279 0,-969 -477,-1767 -476,-799 -1248,-1143 v 116 q 384,215 632,583 249,367 369,934 121,567 121,1183 0,666 -103,1216 -79,431 -196,690 -117,260 -311,500 -193,241 -512,460 z"
       transform="scale(0.015625)" /><path
       id="TimesNewRomanPSMT-32"
       d="M 2934,816 2638,0 H 138 v 116 q 1103,1006 1553,1643 450,638 450,1166 0,403 -247,662 -247,260 -591,260 -312,0 -561,-183 Q 494,3481 375,3128 H 259 q 79,578 402,887 323,310 808,310 515,0 860,-331 346,-331 346,-781 0,-322 -150,-644 Q 2294,2063 1775,1497 997,647 803,472 h 1106 q 338,0 474,25 136,25 245,101 110,77 191,218 z"
       transform="scale(0.015625)" /><path
       id="TimesNewRomanPSMT-34"
       d="M 2978,1563 V 1119 H 2409 V 0 H 1894 V 1119 H 100 v 400 l 1966,2806 h 343 V 1563 Z m -1084,0 V 3666 L 406,1563 Z"
       transform="scale(0.015625)" /><path
       id="TimesNewRomanPSMT-36"
       d="m 2869,4325 v -116 q -413,-40 -674,-164 -261,-123 -516,-376 -254,-253 -421,-564 -167,-311 -280,-739 450,309 903,309 435,0 753,-350 319,-350 319,-900 0,-531 -322,-969 -387,-531 -1025,-531 -434,0 -737,288 -594,559 -594,1450 0,568 228,1080 228,513 651,910 424,397 811,534 388,138 723,138 z M 925,2138 q -56,-422 -56,-682 0,-300 111,-652 111,-351 329,-557 160,-147 388,-147 272,0 486,256 214,257 214,732 0,534 -213,924 -212,391 -603,391 -118,0 -254,-50 -136,-50 -402,-215 z"
       transform="scale(0.015625)" /><path
       id="TimesNewRomanPSMT-38"
       d="m 1228,2134 q -503,413 -649,663 -145,250 -145,519 0,412 319,710 319,299 847,299 513,0 825,-278 313,-278 313,-634 0,-238 -169,-485 -169,-247 -703,-581 550,-425 728,-669 237,-319 237,-672 0,-447 -341,-764 -340,-317 -893,-317 -603,0 -941,378 -268,303 -268,663 0,281 189,557 189,277 651,611 z m 491,335 q 375,337 475,532 100,196 100,443 0,328 -185,514 -184,186 -503,186 -318,0 -518,-185 -200,-184 -200,-431 0,-162 82,-325 83,-162 236,-309 z M 1375,2016 Q 1116,1797 991,1539 866,1281 866,981 866,578 1086,336 1306,94 1647,94 q 337,0 540,190 204,191 204,463 0,225 -119,403 -222,331 -897,866 z"
       transform="scale(0.015625)" /><clipPath
       id="pd72f2dca87"><rect
         x="14.13"
         y="13.5648"
         width="87.606003"
         height="87.040802"
         id="rect48" /></clipPath><style
       type="text/css"
       id="style1-99">*{stroke-linejoin: round; stroke-linecap: butt}</style><clipPath
       id="p2fae73ecb7"><rect
         x="7.1999998"
         y="6.7392001"
         width="44.639999"
         height="43.243198"
         id="rect9-7" /></clipPath><style
       type="text/css"
       id="style1-3">*{stroke-linejoin: round; stroke-linecap: butt}</style><clipPath
       id="p70f13ccf84"><rect
         x="14.13"
         y="13.5648"
         width="87.606003"
         height="87.040802"
         id="rect9-4" /></clipPath><style
       type="text/css"
       id="style1-8">*{stroke-linejoin: round; stroke-linecap: butt}</style><clipPath
       id="pb37a9fd50e"><rect
         x="7.1999998"
         y="7.1999998"
         width="87.606003"
         height="87.040802"
         id="rect9-0" /></clipPath><style
       type="text/css"
       id="style1-6">*{stroke-linejoin: round; stroke-linecap: butt}</style><clipPath
       id="p80ec47c19b"><rect
         x="7.1999998"
         y="7.1999998"
         width="87.606003"
         height="87.040802"
         id="rect9-5" /></clipPath><style
       type="text/css"
       id="style1-7">*{stroke-linejoin: round; stroke-linecap: butt}</style><clipPath
       id="pa532949510"><rect
         x="7.1999998"
         y="7.1999998"
         width="44.639999"
         height="43.243198"
         id="rect9-55" /></clipPath><style
       type="text/css"
       id="style1-1">*{stroke-linejoin: round; stroke-linecap: butt}</style><path
       id="TimesNewRomanPSMT-30-8"
       d="m 231,2094 q 0,725 219,1248 219,524 581,780 282,203 582,203 487,0 875,-497 484,-615 484,-1669 0,-737 -213,-1253 Q 2547,391 2217,158 1888,-75 1581,-75 975,-75 572,641 231,1244 231,2094 Z m 613,-78 q 0,-875 215,-1428 179,-466 532,-466 168,0 349,151 182,152 276,508 143,538 143,1516 0,725 -150,1209 -112,360 -290,510 -128,103 -310,103 -212,0 -378,-191 -225,-259 -306,-816 -81,-556 -81,-1096 z"
       transform="scale(0.015625)" /><path
       id="TimesNewRomanPSMT-35-7"
       d="M 2778,4238 2534,3706 H 1259 L 981,3138 q 828,-122 1313,-616 415,-425 415,-1000 0,-334 -136,-619 Q 2438,619 2231,419 2025,219 1772,97 1413,-75 1034,-75 653,-75 479,54 306,184 306,341 q 0,87 72,154 72,68 181,68 82,0 143,-25 61,-25 207,-129 235,-162 475,-162 366,0 642,276 277,277 277,674 0,384 -247,717 -247,333 -681,514 -341,141 -928,163 l 812,1647 z"
       transform="scale(0.015625)" /><path
       id="TimesNewRomanPSMT-31-7"
       d="m 750,3822 1031,503 h 103 V 747 q 0,-356 30,-444 30,-87 123,-134 94,-47 382,-53 V 0 H 825 v 116 q 300,6 387,51 88,46 122,122 35,77 35,458 v 2287 q 0,463 -31,594 -22,100 -80,147 -58,47 -139,47 -116,0 -322,-97 z"
       transform="scale(0.015625)" /><path
       id="TimesNewRomanPSMT-2e-7"
       d="M 800,606 Q 947,606 1047,504 1147,403 1147,259 1147,116 1045,14 944,-88 800,-88 656,-88 554,14 453,116 453,259 q 0,147 101,247 102,100 246,100 z"
       transform="scale(0.015625)" /><clipPath
       id="pb0814a49fc"><rect
         x="24.200001"
         y="7.1999998"
         width="96.533997"
         height="87.040802"
         id="rect29" /></clipPath><style
       type="text/css"
       id="style1-5">*{stroke-linejoin: round; stroke-linecap: butt}</style><path
       id="TimesNewRomanPSMT-30-2"
       d="m 231,2094 q 0,725 219,1248 219,524 581,780 282,203 582,203 487,0 875,-497 484,-615 484,-1669 0,-737 -213,-1253 Q 2547,391 2217,158 1888,-75 1581,-75 975,-75 572,641 231,1244 231,2094 Z m 613,-78 q 0,-875 215,-1428 179,-466 532,-466 168,0 349,151 182,152 276,508 143,538 143,1516 0,725 -150,1209 -112,360 -290,510 -128,103 -310,103 -212,0 -378,-191 -225,-259 -306,-816 -81,-556 -81,-1096 z"
       transform="scale(0.015625)" /><path
       id="TimesNewRomanPSMT-35-1"
       d="M 2778,4238 2534,3706 H 1259 L 981,3138 q 828,-122 1313,-616 415,-425 415,-1000 0,-334 -136,-619 Q 2438,619 2231,419 2025,219 1772,97 1413,-75 1034,-75 653,-75 479,54 306,184 306,341 q 0,87 72,154 72,68 181,68 82,0 143,-25 61,-25 207,-129 235,-162 475,-162 366,0 642,276 277,277 277,674 0,384 -247,717 -247,333 -681,514 -341,141 -928,163 l 812,1647 z"
       transform="scale(0.015625)" /><path
       id="TimesNewRomanPSMT-31-5"
       d="m 750,3822 1031,503 h 103 V 747 q 0,-356 30,-444 30,-87 123,-134 94,-47 382,-53 V 0 H 825 v 116 q 300,6 387,51 88,46 122,122 35,77 35,458 v 2287 q 0,463 -31,594 -22,100 -80,147 -58,47 -139,47 -116,0 -322,-97 z"
       transform="scale(0.015625)" /><path
       id="TimesNewRomanPSMT-46-3"
       d="M 1309,4006 V 2341 h 772 q 266,0 389,117 124,117 164,464 h 116 V 1488 h -116 q -3,246 -64,362 -61,116 -169,173 -107,58 -320,58 H 1309 V 750 q 0,-322 41,-425 31,-78 131,-134 138,-75 288,-75 h 153 V 0 H 103 v 116 h 150 q 263,0 381,153 75,100 75,481 v 2738 q 0,321 -40,425 -31,78 -128,134 -135,75 -288,75 H 103 v 116 h 3153 l 41,-932 h -109 q -82,297 -190,436 -107,139 -265,201 -158,63 -489,63 z"
       transform="scale(0.015625)" /><path
       id="TimesNewRomanPSMT-72-0"
       d="m 1038,2947 v -644 q 359,644 737,644 172,0 284,-105 113,-104 113,-242 0,-122 -82,-207 -81,-84 -193,-84 -109,0 -245,108 -136,108 -202,108 -56,0 -122,-62 -140,-129 -290,-422 V 669 q 0,-238 59,-360 41,-84 144,-140 103,-56 297,-56 V 0 H 72 v 113 q 219,0 325,68 78,50 109,160 16,53 16,303 v 1109 q 0,500 -21,595 -20,96 -75,139 -54,44 -135,44 -97,0 -219,-47 l -31,113 865,350 z"
       transform="scale(0.015625)" /><path
       id="TimesNewRomanPSMT-65-8"
       d="m 681,1784 q -3,-637 310,-1000 312,-362 734,-362 281,0 489,154 208,155 349,530 l 96,-62 Q 2594,616 2278,264 1963,-88 1488,-88 972,-88 605,314 238,716 238,1394 q 0,734 376,1145 377,411 945,411 482,0 791,-317 309,-317 309,-849 z m 0,182 h 1325 q -15,275 -65,387 -78,175 -233,275 -155,100 -324,100 -259,0 -464,-202 -204,-201 -239,-560 z"
       transform="scale(0.015625)" /><path
       id="TimesNewRomanPSMT-71-4"
       d="M 2734,2947 V -734 q 0,-275 37,-353 38,-79 118,-122 80,-44 311,-44 v -116 H 1756 v 116 h 60 q 175,0 265,50 63,34 100,123 38,89 38,346 V 497 Q 1934,159 1721,35 1509,-88 1281,-88 866,-88 539,290 213,669 213,1303 q 0,728 431,1186 431,458 1040,458 179,0 329,-50 150,-50 268,-150 182,87 347,200 z M 2219,694 v 1344 q 0,234 -61,368 -61,135 -218,228 -156,94 -352,94 -350,0 -600,-297 -250,-297 -250,-900 0,-578 254,-878 255,-300 614,-300 185,0 328,80 144,80 285,261 z"
       transform="scale(0.015625)" /><path
       id="TimesNewRomanPSMT-2e-0"
       d="M 800,606 Q 947,606 1047,504 1147,403 1147,259 1147,116 1045,14 944,-88 800,-88 656,-88 554,14 453,116 453,259 q 0,147 101,247 102,100 246,100 z"
       transform="scale(0.015625)" /><path
       id="TimesNewRomanPSMT-20-4"
       transform="scale(0.015625)"
       d="" /><path
       id="TimesNewRomanPSMT-28-6"
       d="m 1988,-1253 v -116 q -472,238 -788,556 -450,454 -694,1069 -243,616 -243,1278 0,969 478,1767 478,799 1247,1143 V 4313 Q 1603,4100 1356,3731 1109,3363 987,2797 866,2231 866,1616 866,947 969,400 q 81,-431 196,-692 116,-261 311,-501 196,-241 512,-460 z"
       transform="scale(0.015625)" /><path
       id="TimesNewRomanPSMT-48-4"
       d="m 1316,2272 h 1968 v 1212 q 0,325 -40,429 -31,78 -131,134 -135,75 -285,75 h -150 v 116 h 1813 v -116 h -150 q -150,0 -285,-72 -100,-50 -136,-152 -36,-101 -36,-414 V 750 q 0,-322 41,-425 31,-78 128,-134 138,-75 288,-75 h 150 V 0 H 2678 v 116 h 150 q 260,0 378,153 78,100 78,481 V 2041 H 1316 V 750 q 0,-322 40,-425 32,-78 132,-134 134,-75 284,-75 h 153 V 0 H 109 v 116 h 150 q 263,0 382,153 75,100 75,481 v 2734 q 0,325 -41,429 -31,78 -128,134 -138,75 -288,75 H 109 v 116 h 1816 v -116 h -153 q -150,0 -284,-72 -97,-50 -135,-152 -37,-101 -37,-414 z"
       transform="scale(0.015625)" /><path
       id="TimesNewRomanPSMT-7a-6"
       d="M 2688,878 2653,0 H 128 v 113 l 1900,2531 h -937 q -303,0 -397,-39 -94,-39 -153,-149 -85,-156 -97,-387 H 319 l 19,794 H 2738 V 2747 L 819,209 h 1044 q 328,0 445,55 117,55 189,192 50,100 84,422 z"
       transform="scale(0.015625)" /><path
       id="TimesNewRomanPSMT-29-4"
       d="m 144,4313 v 131 q 475,-235 790,-553 447,-457 691,-1071 244,-614 244,-1279 0,-969 -477,-1767 -476,-799 -1248,-1143 v 116 q 384,215 632,583 249,367 369,934 121,567 121,1183 0,666 -103,1216 -79,431 -196,690 -117,260 -311,500 -193,241 -512,460 z"
       transform="scale(0.015625)" /><path
       id="TimesNewRomanPSMT-32-5"
       d="M 2934,816 2638,0 H 138 v 116 q 1103,1006 1553,1643 450,638 450,1166 0,403 -247,662 -247,260 -591,260 -312,0 -561,-183 Q 494,3481 375,3128 H 259 q 79,578 402,887 323,310 808,310 515,0 860,-331 346,-331 346,-781 0,-322 -150,-644 Q 2294,2063 1775,1497 997,647 803,472 h 1106 q 338,0 474,25 136,25 245,101 110,77 191,218 z"
       transform="scale(0.015625)" /><path
       id="TimesNewRomanPSMT-34-1"
       d="M 2978,1563 V 1119 H 2409 V 0 H 1894 V 1119 H 100 v 400 l 1966,2806 h 343 V 1563 Z m -1084,0 V 3666 L 406,1563 Z"
       transform="scale(0.015625)" /><path
       id="TimesNewRomanPSMT-36-5"
       d="m 2869,4325 v -116 q -413,-40 -674,-164 -261,-123 -516,-376 -254,-253 -421,-564 -167,-311 -280,-739 450,309 903,309 435,0 753,-350 319,-350 319,-900 0,-531 -322,-969 -387,-531 -1025,-531 -434,0 -737,288 -594,559 -594,1450 0,568 228,1080 228,513 651,910 424,397 811,534 388,138 723,138 z M 925,2138 q -56,-422 -56,-682 0,-300 111,-652 111,-351 329,-557 160,-147 388,-147 272,0 486,256 214,257 214,732 0,534 -213,924 -212,391 -603,391 -118,0 -254,-50 -136,-50 -402,-215 z"
       transform="scale(0.015625)" /><path
       id="TimesNewRomanPSMT-38-2"
       d="m 1228,2134 q -503,413 -649,663 -145,250 -145,519 0,412 319,710 319,299 847,299 513,0 825,-278 313,-278 313,-634 0,-238 -169,-485 -169,-247 -703,-581 550,-425 728,-669 237,-319 237,-672 0,-447 -341,-764 -340,-317 -893,-317 -603,0 -941,378 -268,303 -268,663 0,281 189,557 189,277 651,611 z m 491,335 q 375,337 475,532 100,196 100,443 0,328 -185,514 -184,186 -503,186 -318,0 -518,-185 -200,-184 -200,-431 0,-162 82,-325 83,-162 236,-309 z M 1375,2016 Q 1116,1797 991,1539 866,1281 866,981 866,578 1086,336 1306,94 1647,94 q 337,0 540,190 204,191 204,463 0,225 -119,403 -222,331 -897,866 z"
       transform="scale(0.015625)" /><clipPath
       id="p6b57c82a0d"><rect
         x="24.200001"
         y="7.8963242"
         width="87.606003"
         height="87.040802"
         id="rect48-7" /></clipPath><style
       type="text/css"
       id="style1-85">*{stroke-linejoin: round; stroke-linecap: butt}</style><path
       id="TimesNewRomanPSMT-30-6"
       d="m 231,2094 q 0,725 219,1248 219,524 581,780 282,203 582,203 487,0 875,-497 484,-615 484,-1669 0,-737 -213,-1253 Q 2547,391 2217,158 1888,-75 1581,-75 975,-75 572,641 231,1244 231,2094 Z m 613,-78 q 0,-875 215,-1428 179,-466 532,-466 168,0 349,151 182,152 276,508 143,538 143,1516 0,725 -150,1209 -112,360 -290,510 -128,103 -310,103 -212,0 -378,-191 -225,-259 -306,-816 -81,-556 -81,-1096 z"
       transform="scale(0.015625)" /><path
       id="TimesNewRomanPSMT-35-79"
       d="M 2778,4238 2534,3706 H 1259 L 981,3138 q 828,-122 1313,-616 415,-425 415,-1000 0,-334 -136,-619 Q 2438,619 2231,419 2025,219 1772,97 1413,-75 1034,-75 653,-75 479,54 306,184 306,341 q 0,87 72,154 72,68 181,68 82,0 143,-25 61,-25 207,-129 235,-162 475,-162 366,0 642,276 277,277 277,674 0,384 -247,717 -247,333 -681,514 -341,141 -928,163 l 812,1647 z"
       transform="scale(0.015625)" /><path
       id="TimesNewRomanPSMT-31-4"
       d="m 750,3822 1031,503 h 103 V 747 q 0,-356 30,-444 30,-87 123,-134 94,-47 382,-53 V 0 H 825 v 116 q 300,6 387,51 88,46 122,122 35,77 35,458 v 2287 q 0,463 -31,594 -22,100 -80,147 -58,47 -139,47 -116,0 -322,-97 z"
       transform="scale(0.015625)" /><path
       id="TimesNewRomanPSMT-46-1"
       d="M 1309,4006 V 2341 h 772 q 266,0 389,117 124,117 164,464 h 116 V 1488 h -116 q -3,246 -64,362 -61,116 -169,173 -107,58 -320,58 H 1309 V 750 q 0,-322 41,-425 31,-78 131,-134 138,-75 288,-75 h 153 V 0 H 103 v 116 h 150 q 263,0 381,153 75,100 75,481 v 2738 q 0,321 -40,425 -31,78 -128,134 -135,75 -288,75 H 103 v 116 h 3153 l 41,-932 h -109 q -82,297 -190,436 -107,139 -265,201 -158,63 -489,63 z"
       transform="scale(0.015625)" /><path
       id="TimesNewRomanPSMT-72-6"
       d="m 1038,2947 v -644 q 359,644 737,644 172,0 284,-105 113,-104 113,-242 0,-122 -82,-207 -81,-84 -193,-84 -109,0 -245,108 -136,108 -202,108 -56,0 -122,-62 -140,-129 -290,-422 V 669 q 0,-238 59,-360 41,-84 144,-140 103,-56 297,-56 V 0 H 72 v 113 q 219,0 325,68 78,50 109,160 16,53 16,303 v 1109 q 0,500 -21,595 -20,96 -75,139 -54,44 -135,44 -97,0 -219,-47 l -31,113 865,350 z"
       transform="scale(0.015625)" /><path
       id="TimesNewRomanPSMT-65-1"
       d="m 681,1784 q -3,-637 310,-1000 312,-362 734,-362 281,0 489,154 208,155 349,530 l 96,-62 Q 2594,616 2278,264 1963,-88 1488,-88 972,-88 605,314 238,716 238,1394 q 0,734 376,1145 377,411 945,411 482,0 791,-317 309,-317 309,-849 z m 0,182 h 1325 q -15,275 -65,387 -78,175 -233,275 -155,100 -324,100 -259,0 -464,-202 -204,-201 -239,-560 z"
       transform="scale(0.015625)" /><path
       id="TimesNewRomanPSMT-71-2"
       d="M 2734,2947 V -734 q 0,-275 37,-353 38,-79 118,-122 80,-44 311,-44 v -116 H 1756 v 116 h 60 q 175,0 265,50 63,34 100,123 38,89 38,346 V 497 Q 1934,159 1721,35 1509,-88 1281,-88 866,-88 539,290 213,669 213,1303 q 0,728 431,1186 431,458 1040,458 179,0 329,-50 150,-50 268,-150 182,87 347,200 z M 2219,694 v 1344 q 0,234 -61,368 -61,135 -218,228 -156,94 -352,94 -350,0 -600,-297 -250,-297 -250,-900 0,-578 254,-878 255,-300 614,-300 185,0 328,80 144,80 285,261 z"
       transform="scale(0.015625)" /><path
       id="TimesNewRomanPSMT-2e-04"
       d="M 800,606 Q 947,606 1047,504 1147,403 1147,259 1147,116 1045,14 944,-88 800,-88 656,-88 554,14 453,116 453,259 q 0,147 101,247 102,100 246,100 z"
       transform="scale(0.015625)" /><path
       id="TimesNewRomanPSMT-20-45"
       transform="scale(0.015625)"
       d="" /><path
       id="TimesNewRomanPSMT-28-9"
       d="m 1988,-1253 v -116 q -472,238 -788,556 -450,454 -694,1069 -243,616 -243,1278 0,969 478,1767 478,799 1247,1143 V 4313 Q 1603,4100 1356,3731 1109,3363 987,2797 866,2231 866,1616 866,947 969,400 q 81,-431 196,-692 116,-261 311,-501 196,-241 512,-460 z"
       transform="scale(0.015625)" /><path
       id="TimesNewRomanPSMT-48-7"
       d="m 1316,2272 h 1968 v 1212 q 0,325 -40,429 -31,78 -131,134 -135,75 -285,75 h -150 v 116 h 1813 v -116 h -150 q -150,0 -285,-72 -100,-50 -136,-152 -36,-101 -36,-414 V 750 q 0,-322 41,-425 31,-78 128,-134 138,-75 288,-75 h 150 V 0 H 2678 v 116 h 150 q 260,0 378,153 78,100 78,481 V 2041 H 1316 V 750 q 0,-322 40,-425 32,-78 132,-134 134,-75 284,-75 h 153 V 0 H 109 v 116 h 150 q 263,0 382,153 75,100 75,481 v 2734 q 0,325 -41,429 -31,78 -128,134 -138,75 -288,75 H 109 v 116 h 1816 v -116 h -153 q -150,0 -284,-72 -97,-50 -135,-152 -37,-101 -37,-414 z"
       transform="scale(0.015625)" /><path
       id="TimesNewRomanPSMT-7a-5"
       d="M 2688,878 2653,0 H 128 v 113 l 1900,2531 h -937 q -303,0 -397,-39 -94,-39 -153,-149 -85,-156 -97,-387 H 319 l 19,794 H 2738 V 2747 L 819,209 h 1044 q 328,0 445,55 117,55 189,192 50,100 84,422 z"
       transform="scale(0.015625)" /><path
       id="TimesNewRomanPSMT-29-3"
       d="m 144,4313 v 131 q 475,-235 790,-553 447,-457 691,-1071 244,-614 244,-1279 0,-969 -477,-1767 -476,-799 -1248,-1143 v 116 q 384,215 632,583 249,367 369,934 121,567 121,1183 0,666 -103,1216 -79,431 -196,690 -117,260 -311,500 -193,241 -512,460 z"
       transform="scale(0.015625)" /><path
       id="TimesNewRomanPSMT-32-9"
       d="M 2934,816 2638,0 H 138 v 116 q 1103,1006 1553,1643 450,638 450,1166 0,403 -247,662 -247,260 -591,260 -312,0 -561,-183 Q 494,3481 375,3128 H 259 q 79,578 402,887 323,310 808,310 515,0 860,-331 346,-331 346,-781 0,-322 -150,-644 Q 2294,2063 1775,1497 997,647 803,472 h 1106 q 338,0 474,25 136,25 245,101 110,77 191,218 z"
       transform="scale(0.015625)" /><path
       id="TimesNewRomanPSMT-34-0"
       d="M 2978,1563 V 1119 H 2409 V 0 H 1894 V 1119 H 100 v 400 l 1966,2806 h 343 V 1563 Z m -1084,0 V 3666 L 406,1563 Z"
       transform="scale(0.015625)" /><path
       id="TimesNewRomanPSMT-36-55"
       d="m 2869,4325 v -116 q -413,-40 -674,-164 -261,-123 -516,-376 -254,-253 -421,-564 -167,-311 -280,-739 450,309 903,309 435,0 753,-350 319,-350 319,-900 0,-531 -322,-969 -387,-531 -1025,-531 -434,0 -737,288 -594,559 -594,1450 0,568 228,1080 228,513 651,910 424,397 811,534 388,138 723,138 z M 925,2138 q -56,-422 -56,-682 0,-300 111,-652 111,-351 329,-557 160,-147 388,-147 272,0 486,256 214,257 214,732 0,534 -213,924 -212,391 -603,391 -118,0 -254,-50 -136,-50 -402,-215 z"
       transform="scale(0.015625)" /><path
       id="TimesNewRomanPSMT-38-6"
       d="m 1228,2134 q -503,413 -649,663 -145,250 -145,519 0,412 319,710 319,299 847,299 513,0 825,-278 313,-278 313,-634 0,-238 -169,-485 -169,-247 -703,-581 550,-425 728,-669 237,-319 237,-672 0,-447 -341,-764 -340,-317 -893,-317 -603,0 -941,378 -268,303 -268,663 0,281 189,557 189,277 651,611 z m 491,335 q 375,337 475,532 100,196 100,443 0,328 -185,514 -184,186 -503,186 -318,0 -518,-185 -200,-184 -200,-431 0,-162 82,-325 83,-162 236,-309 z M 1375,2016 Q 1116,1797 991,1539 866,1281 866,981 866,578 1086,336 1306,94 1647,94 q 337,0 540,190 204,191 204,463 0,225 -119,403 -222,331 -897,866 z"
       transform="scale(0.015625)" /><clipPath
       id="pe8dfc05855"><rect
         x="24.200001"
         y="7.8963242"
         width="109.368"
         height="87.040802"
         id="rect48-3" /></clipPath><style
       type="text/css"
       id="style1-68">*{stroke-linejoin: round; stroke-linecap: butt}</style><clipPath
       id="p5497805f42"><rect
         x="7.1999998"
         y="7.1999998"
         width="109.368"
         height="87.040802"
         id="rect9-07" /></clipPath><style
       type="text/css"
       id="style1-0">*{stroke-linejoin: round; stroke-linecap: butt}</style><clipPath
       id="p5ced52415f"><rect
         x="7.1999998"
         y="7.1999998"
         width="44.639999"
         height="43.243198"
         id="rect9-9" /></clipPath><clipPath
       id="pe8dfc05855-3"><rect
         x="24.200001"
         y="7.8963242"
         width="109.368"
         height="87.040802"
         id="rect48-3-9" /></clipPath><clipPath
       id="clipPath1"><rect
         x="24.200001"
         y="7.8963242"
         width="109.368"
         height="87.040802"
         id="rect1" /></clipPath><clipPath
       id="clipPath2"><rect
         x="24.200001"
         y="7.8963242"
         width="109.368"
         height="87.040802"
         id="rect2" /></clipPath></defs><g
     inkscape:label="Layer 1"
     inkscape:groupmode="layer"
     id="layer1"><g
       id="figure_1"
       transform="matrix(0.35277778,0,0,0.35277778,35.915028,-0.21340811)"><g
         id="axes_1"><g
           id="line2d_12"
           style="display:none"><path
             d="m 31.0355,90.914238 3.162191,-0.104019 0.170929,-0.220887 0.08546,-67.748198 0.170929,68.034715 0.341858,0.09655 1.965686,-0.08595 0.598253,-0.10849 0.170929,-0.165776 0.08546,-0.327982 0.08546,-67.412622 0.170929,67.81434 0.256394,0.201916 0.769182,0.08908 1.794757,-0.03175 3.162191,-0.148275 0.341858,-0.165709 0.170929,-0.327829 0.08547,-0.645673 0.08546,-66.735219 0.17093,67.407231 0.256394,0.404771 0.512787,0.146888 1.538363,0.07844 5.127877,-0.0071 4.786019,-0.144861 0.683717,-0.200954 0.256393,-0.280105 0.17093,-0.644371 0.08546,-1.252254 0.08546,-65.357258 0.170929,66.552245 0.256394,0.818313 0.341858,0.238899 0.683717,0.139975 1.965687,0.0908 8.204603,0.04857 63.585677,0.01742 v 0"
             clip-path="url(#pe8dfc05855)"
             style="fill:none;stroke:#4c72b0;stroke-width:1.5;stroke-linecap:round"
             id="path42" /></g><g
           id="line2d_13"
           style="display:inline"><path
             d="m 31.0355,11.852724 0.170929,79.071122 3.076726,-0.09045 0.08546,-0.09235 0.08546,-37.795645 0.170929,37.998452 0.341858,0.01011 2.734868,-0.24315 0.08546,-0.223716 0.08546,-45.949686 0.170929,46.261766 0.256394,0.138275 0.683717,0.02612 2.136616,-0.160571 0.08546,-0.136688 0.08546,-18.670598 0.170929,18.888982 0.341859,0.09449 2.649403,-0.319246 0.08546,-0.147987 0.08547,-0.437271 0.08546,-45.155602 0.17093,45.63311 0.256394,0.275059 0.598252,0.109369 1.709292,0.01648 0.512788,-0.07849 0.08546,-0.09401 0.08546,-7.701084 0.170929,7.819209 0.427323,0.0755 1.367434,-0.03131 1.11104,-0.118752 0.170929,-0.142336 0.08546,-0.276648 0.08546,-19.114581 0.170929,19.415136 0.256394,0.178616 0.769181,0.0817 1.709293,-0.03765 0.341858,-0.08193 0.08546,-0.113166 0.08546,-6.655676 0.17093,6.807539 0.427323,0.09357 2.136615,-0.158119 0.341858,-0.16781 0.17093,-0.327442 0.08546,-0.634837 0.08546,-33.106796 0.170929,33.710105 0.256394,0.416104 0.512788,0.151904 1.709292,0.108371 0.512788,-0.05549 0.170929,-0.197742 0.08546,-6.760696 0.170929,6.836091 0.341858,0.110927 1.794757,0.07112 0.769182,-0.06555 0.170929,-0.103815 0.08546,-0.199052 0.08546,-8.334045 0.170929,8.458874 0.256394,0.133506 0.940111,0.06132 1.880222,-0.06962 0.08546,-0.09658 0.08546,-3.719816 0.170929,3.852037 0.427323,0.07405 2.136615,-0.03449 0.427324,-0.117631 0.08546,-0.09266 0.08546,-0.268114 0.08546,-9.425822 0.17093,9.627318 0.256393,0.182086 0.769182,0.07301 1.880222,-0.04654 0.170929,-0.0815 0.08546,-0.15673 0.08546,-5.103908 0.170929,5.31327 0.341859,0.119268 1.196504,0.01248 1.538363,-0.113441 0.08546,-0.112392 0.08546,-3.395174 0.170929,3.516742 0.341858,0.08726 1.794757,0.02126 0.940111,-0.10704 0.08546,-0.118282 0.08546,-3.351375 0.170929,3.440586 0.341859,0.09122 1.709292,0.01516 0.940111,-0.119724 0.170929,-0.291306 0.08546,-5.744808 0.170929,5.946545 0.256394,0.153141 0.854646,0.0654 2.051151,-0.03142 0.08546,-0.965365 0.17093,0.965592 0.769181,0.03779 2.307545,-0.05807 0.08546,-0.06523 0.08546,-1.551327 0.170929,1.63287 0.512788,0.05857 2.563938,-0.03426 0.08546,-0.03675 0.08546,-0.828473 0.170929,0.865067 0.769181,0.03604 2.39301,-0.05748 0.08546,-0.672812 0.17093,0.696216 0.940112,0.03203 2.22208,-0.01419 0.0855,-0.290033 0.17093,0.287503 1.70929,0.01126 1.36743,-0.07921 0.0855,-0.08255 0.0855,-1.621227 0.17093,1.695534 0.42732,0.07334 2.56394,-0.0086 0.17093,-0.06004 0.0855,-0.834362 0.17093,0.877962 0.68371,0.04434 2.47848,-0.0132 0.0855,-0.199918 0.17093,0.206223 2.13662,0.01216 1.02557,-0.09166 0.0855,-0.821682 0.17094,0.851024 0.59825,0.04685 2.56394,-0.07451 0.0855,-0.693742 0.17093,0.738716 0.68372,0.04225 2.47847,-0.03338 0.0855,-0.321537 0.17093,0.331814 1.19651,0.0208 1.96569,-0.08872 0.0855,-0.694898 0.17093,0.735755 0.59825,0.04553 5.89706,-0.01359 0.0855,-0.02101 0.0855,-0.307498 v 0"
             clip-path="url(#pe8dfc05855)"
             style="fill:none;stroke:#dd8452;stroke-width:1.5;stroke-linecap:round"
             id="path43" /></g></g></g><g
       id="figure_1-0"
       transform="matrix(0.35277778,0,0,0.35277778,-8.0552948,-0.21338103)"
       style="stroke-linecap:butt;stroke-linejoin:round"><g
         id="axes_1-3"
         style="stroke-linecap:butt;stroke-linejoin:round"><g
           id="line2d_12-6"
           style="stroke-linecap:butt;stroke-linejoin:round"><path
             d="m 31.0355,90.914238 3.162191,-0.104019 0.170929,-0.220887 0.08546,-67.748198 0.170929,68.034715 0.341858,0.09655 1.965686,-0.08595 0.598253,-0.10849 0.170929,-0.165776 0.08546,-0.327982 0.08546,-67.412622 0.170929,67.81434 0.256394,0.201916 0.769182,0.08908 1.794757,-0.03175 3.162191,-0.148275 0.341858,-0.165709 0.170929,-0.327829 0.08547,-0.645673 0.08546,-66.735219 0.17093,67.407231 0.256394,0.404771 0.512787,0.146888 1.538363,0.07844 5.127877,-0.0071 4.786019,-0.144861 0.683717,-0.200954 0.256393,-0.280105 0.17093,-0.644371 0.08546,-1.252254 0.08546,-65.357258 0.170929,66.552245 0.256394,0.818313 0.341858,0.238899 0.683717,0.139975 1.965687,0.0908 8.204603,0.04857 63.585677,0.01742 v 0"
             clip-path="url(#pe8dfc05855-3)"
             style="fill:none;stroke:#4c72b0;stroke-width:1.5;stroke-linecap:round;stroke-linejoin:round"
             id="path42-5" /></g><g
           id="line2d_13-7"
           style="display:none;stroke-linecap:butt;stroke-linejoin:round"><path
             d="m 31.0355,11.852724 0.170929,79.071122 3.076726,-0.09045 0.08546,-0.09235 0.08546,-37.795645 0.170929,37.998452 0.341858,0.01011 2.734868,-0.24315 0.08546,-0.223716 0.08546,-45.949686 0.170929,46.261766 0.256394,0.138275 0.683717,0.02612 2.136616,-0.160571 0.08546,-0.136688 0.08546,-18.670598 0.170929,18.888982 0.341859,0.09449 2.649403,-0.319246 0.08546,-0.147987 0.08547,-0.437271 0.08546,-45.155602 0.17093,45.63311 0.256394,0.275059 0.598252,0.109369 1.709292,0.01648 0.512788,-0.07849 0.08546,-0.09401 0.08546,-7.701084 0.170929,7.819209 0.427323,0.0755 1.367434,-0.03131 1.11104,-0.118752 0.170929,-0.142336 0.08546,-0.276648 0.08546,-19.114581 0.170929,19.415136 0.256394,0.178616 0.769181,0.0817 1.709293,-0.03765 0.341858,-0.08193 0.08546,-0.113166 0.08546,-6.655676 0.17093,6.807539 0.427323,0.09357 2.136615,-0.158119 0.341858,-0.16781 0.17093,-0.327442 0.08546,-0.634837 0.08546,-33.106796 0.170929,33.710105 0.256394,0.416104 0.512788,0.151904 1.709292,0.108371 0.512788,-0.05549 0.170929,-0.197742 0.08546,-6.760696 0.170929,6.836091 0.341858,0.110927 1.794757,0.07112 0.769182,-0.06555 0.170929,-0.103815 0.08546,-0.199052 0.08546,-8.334045 0.170929,8.458874 0.256394,0.133506 0.940111,0.06132 1.880222,-0.06962 0.08546,-0.09658 0.08546,-3.719816 0.170929,3.852037 0.427323,0.07405 2.136615,-0.03449 0.427324,-0.117631 0.08546,-0.09266 0.08546,-0.268114 0.08546,-9.425822 0.17093,9.627318 0.256393,0.182086 0.769182,0.07301 1.880222,-0.04654 0.170929,-0.0815 0.08546,-0.15673 0.08546,-5.103908 0.170929,5.31327 0.341859,0.119268 1.196504,0.01248 1.538363,-0.113441 0.08546,-0.112392 0.08546,-3.395174 0.170929,3.516742 0.341858,0.08726 1.794757,0.02126 0.940111,-0.10704 0.08546,-0.118282 0.08546,-3.351375 0.170929,3.440586 0.341859,0.09122 1.709292,0.01516 0.940111,-0.119724 0.170929,-0.291306 0.08546,-5.744808 0.170929,5.946545 0.256394,0.153141 0.854646,0.0654 2.051151,-0.03142 0.08546,-0.965365 0.17093,0.965592 0.769181,0.03779 2.307545,-0.05807 0.08546,-0.06523 0.08546,-1.551327 0.170929,1.63287 0.512788,0.05857 2.563938,-0.03426 0.08546,-0.03675 0.08546,-0.828473 0.170929,0.865067 0.769181,0.03604 2.39301,-0.05748 0.08546,-0.672812 0.17093,0.696216 0.940112,0.03203 2.22208,-0.01419 0.0855,-0.290033 0.17093,0.287503 1.70929,0.01126 1.36743,-0.07921 0.0855,-0.08255 0.0855,-1.621227 0.17093,1.695534 0.42732,0.07334 2.56394,-0.0086 0.17093,-0.06004 0.0855,-0.834362 0.17093,0.877962 0.68371,0.04434 2.47848,-0.0132 0.0855,-0.199918 0.17093,0.206223 2.13662,0.01216 1.02557,-0.09166 0.0855,-0.821682 0.17094,0.851024 0.59825,0.04685 2.56394,-0.07451 0.0855,-0.693742 0.17093,0.738716 0.68372,0.04225 2.47847,-0.03338 0.0855,-0.321537 0.17093,0.331814 1.19651,0.0208 1.96569,-0.08872 0.0855,-0.694898 0.17093,0.735755 0.59825,0.04553 5.89706,-0.01359 0.0855,-0.02101 0.0855,-0.307498 v 0"
             clip-path="url(#pe8dfc05855-3)"
             style="fill:none;stroke:#dd8452;stroke-width:1.5;stroke-linecap:round;stroke-linejoin:round"
             id="path43-6" /></g></g></g><path
       style="fill:none;stroke:#000000;stroke-width:1.45;stroke-linecap:round;stroke-linejoin:round;stroke-dasharray:none;marker-end:url(#marker2)"
       d="M 28.765354,18.624348 H 42.02667"
       id="path1" /><g
       inkscape:label=""
       transform="translate(27.010209,13.748903)"
       id="g13"><g
   fill="#000000"
   fill-opacity="1"
   id="g4"
   transform="matrix(0.493889,0,0,0.493889,-45.6014,-37.116)">
    <g
   id="g3"
   transform="translate(91.925003,81.962997)">
      <path
   d="m 3.734375,-6.125 c 0.0625,-0.234375 0.09375,-0.328125 0.28125,-0.359375 C 4.109375,-6.5 4.421875,-6.5 4.625,-6.5 c 0.703125,0 1.8125,0 1.8125,0.984375 0,0.34375 -0.15625,1.03125 -0.546875,1.421875 -0.265625,0.25 -0.78125,0.578125 -1.6875,0.578125 H 3.09375 Z m 1.4375,2.734375 c 1.015625,-0.21875 2.1875,-0.921875 2.1875,-1.921875 0,-0.859375 -0.890625,-1.5 -2.203125,-1.5 H 2.328125 c -0.203125,0 -0.296875,0 -0.296875,0.203125 C 2.03125,-6.5 2.125,-6.5 2.3125,-6.5 c 0.015625,0 0.203125,0 0.375,0.015625 0.1875,0.03125 0.265625,0.03125 0.265625,0.171875 0,0.03125 0,0.0625 -0.03125,0.1875 l -1.34375,5.34375 C 1.484375,-0.390625 1.46875,-0.3125 0.671875,-0.3125 0.5,-0.3125 0.40625,-0.3125 0.40625,-0.109375 0.40625,0 0.53125,0 0.546875,0 c 0.28125,0 0.984375,-0.03125 1.25,-0.03125 0.28125,0 1,0.03125 1.28125,0.03125 0.078125,0 0.1875,0 0.1875,-0.203125 0,-0.109375 -0.078125,-0.109375 -0.28125,-0.109375 -0.359375,0 -0.640625,0 -0.640625,-0.171875 0,-0.0625 0.015625,-0.109375 0.03125,-0.171875 l 0.65625,-2.640625 h 1.1875 c 0.90625,0 1.078125,0.5625 1.078125,0.90625 0,0.140625 -0.078125,0.453125 -0.140625,0.6875 C 5.09375,-1.421875 5,-1.0625 5,-0.859375 5,0.21875 6.203125,0.21875 6.328125,0.21875 c 0.84375,0 1.203125,-1 1.203125,-1.140625 0,-0.125 -0.109375,-0.125 -0.125,-0.125 -0.09375,0 -0.109375,0.0625 -0.125,0.140625 C 7.03125,-0.171875 6.59375,0 6.375,0 6.046875,0 5.96875,-0.21875 5.96875,-0.609375 c 0,-0.3125 0.0625,-0.8125 0.109375,-1.140625 0.015625,-0.140625 0.03125,-0.328125 0.03125,-0.46875 0,-0.765625 -0.671875,-1.078125 -0.9375,-1.171875 z m 0,0"
   id="path3" />
    </g>
  </g>
  <g
   fill="#000000"
   fill-opacity="1"
   id="g12"
   transform="matrix(0.493889,0,0,0.493889,-45.6014,-37.116)">
    <g
   id="g6"
   transform="translate(99.569305,81.962997)">
      <path
   d="m 1.859375,-2.296875 c 0.296875,0 1.03125,-0.03125 1.53125,-0.234375 0.703125,-0.296875 0.75,-0.890625 0.75,-1.03125 0,-0.4375 -0.375,-0.84375 -1.0625,-0.84375 -1.109375,0 -2.625,0.96875 -2.625,2.71875 0,1.015625 0.59375,1.796875 1.578125,1.796875 1.421875,0 2.25,-1.0625 2.25,-1.171875 0,-0.0625 -0.046875,-0.140625 -0.109375,-0.140625 -0.0625,0 -0.078125,0.03125 -0.140625,0.109375 -0.78125,0.984375 -1.875,0.984375 -1.984375,0.984375 -0.78125,0 -0.875,-0.84375 -0.875,-1.15625 0,-0.125 0.015625,-0.421875 0.15625,-1.03125 z m -0.46875,-0.21875 C 1.78125,-4.03125 2.8125,-4.1875 3.078125,-4.1875 c 0.453125,0 0.734375,0.296875 0.734375,0.625 0,1.046875 -1.59375,1.046875 -2.015625,1.046875 z m 0,0"
   id="path4" />
    </g>
    <g
   id="g8"
   transform="translate(104.20789,81.962997)">
      <path
   d="M 3.734375,-6.03125 C 3.8125,-6.390625 3.84375,-6.5 4.78125,-6.5 c 0.296875,0 0.375,0 0.375,-0.1875 0,-0.125 -0.109375,-0.125 -0.15625,-0.125 -0.328125,0 -1.140625,0.03125 -1.46875,0.03125 -0.296875,0 -1.03125,-0.03125 -1.328125,-0.03125 -0.0625,0 -0.1875,0 -0.1875,0.203125 0,0.109375 0.09375,0.109375 0.28125,0.109375 0.015625,0 0.203125,0 0.375,0.015625 0.171875,0.03125 0.265625,0.03125 0.265625,0.171875 0,0.03125 0,0.0625 -0.03125,0.1875 L 1.5625,-0.78125 c -0.09375,0.390625 -0.109375,0.46875 -0.90625,0.46875 -0.171875,0 -0.265625,0 -0.265625,0.203125 C 0.390625,0 0.484375,0 0.65625,0 h 4.625 C 5.515625,0 5.515625,0 5.578125,-0.171875 L 6.375,-2.328125 c 0.03125,-0.109375 0.03125,-0.125 0.03125,-0.140625 0,-0.03125 -0.03125,-0.109375 -0.109375,-0.109375 -0.09375,0 -0.109375,0.0625 -0.171875,0.21875 -0.34375,0.90625 -0.78125,2.046875 -2.5,2.046875 H 2.6875 c -0.140625,0 -0.171875,0 -0.21875,0 -0.109375,-0.015625 -0.140625,-0.03125 -0.140625,-0.109375 0,-0.03125 0,-0.046875 0.046875,-0.21875 z m 0,0"
   id="path6" />
    </g>
    <g
   id="g11"
   transform="translate(110.98843,81.962997)">
      <path
   d="M 6.328125,-5.765625 C 6.4375,-6.171875 6.609375,-6.46875 7.40625,-6.5 c 0.046875,0 0.171875,-0.015625 0.171875,-0.203125 0,0 0,-0.109375 -0.125,-0.109375 -0.328125,0 -0.6875,0.03125 -1.015625,0.03125 -0.34375,0 -0.71875,-0.03125 -1.046875,-0.03125 -0.0625,0 -0.171875,0 -0.171875,0.203125 C 5.21875,-6.5 5.3125,-6.5 5.390625,-6.5 c 0.578125,0.015625 0.6875,0.21875 0.6875,0.4375 0,0.03125 -0.03125,0.1875 -0.03125,0.203125 l -0.90625,3.5625 C 4.8125,-0.953125 3.65625,-0.09375 2.65625,-0.09375 c -0.671875,0 -1.203125,-0.4375 -1.203125,-1.296875 0,-0.015625 0,-0.328125 0.109375,-0.765625 L 2.515625,-6.046875 C 2.609375,-6.40625 2.625,-6.5 3.359375,-6.5 c 0.265625,0 0.34375,0 0.34375,-0.203125 0,-0.109375 -0.109375,-0.109375 -0.140625,-0.109375 -0.28125,0 -1,0.03125 -1.28125,0.03125 -0.28125,0 -1,-0.03125 -1.28125,-0.03125 -0.078125,0 -0.1875,0 -0.1875,0.203125 C 0.8125,-6.5 0.890625,-6.5 1.09375,-6.5 c 0.015625,0 0.203125,0 0.375,0.015625 0.171875,0.03125 0.265625,0.03125 0.265625,0.171875 0,0.046875 -0.109375,0.46875 -0.171875,0.703125 l -0.21875,0.875 C 1.25,-4.34375 0.78125,-2.46875 0.734375,-2.265625 0.671875,-2 0.671875,-1.84375 0.671875,-1.6875 c 0,1.203125 0.90625,1.90625 1.953125,1.90625 1.25,0 2.484375,-1.125 2.8125,-2.4375 z m 0,0"
   id="path11" />
    </g>
  </g>
</g></g></svg>
